<mxfile host="app.diagrams.net" modified="2021-11-13T18:16:16.559Z" agent="5.0 (X11; Linux x86_64) AppleWebKit/537.36 (KHTML, like Gecko) Chrome/95.0.4638.69 Safari/537.36" etag="2NwEWicrJN7sEvFlFHFO" version="15.7.3" type="github">
  <diagram id="wj-enbnp0dAxDKXCrh0p" name="Page-1">
    <mxGraphModel dx="981" dy="552" grid="1" gridSize="10" guides="1" tooltips="1" connect="1" arrows="1" fold="1" page="1" pageScale="1" pageWidth="827" pageHeight="1169" math="0" shadow="0">
      <root>
        <mxCell id="0" />
        <mxCell id="1" parent="0" />
        <mxCell id="0eKDqRWV6uwHVYV8FEex-1" value="TribeManager" style="swimlane;fontStyle=1;align=center;verticalAlign=top;childLayout=stackLayout;horizontal=1;startSize=26;horizontalStack=0;resizeParent=1;resizeParentMax=0;resizeLast=0;collapsible=1;marginBottom=0;fillColor=#f5f5f5;strokeColor=#666666;swimlaneFillColor=default;fontSize=12;fontFamily=Verdana;fontColor=#333333;" parent="1" vertex="1">
          <mxGeometry x="60" y="50" width="380" height="228" as="geometry">
            <mxRectangle x="520" y="340" width="100" height="26" as="alternateBounds" />
          </mxGeometry>
        </mxCell>
        <mxCell id="0eKDqRWV6uwHVYV8FEex-2" value="+ tribes: List&lt;Tribe&gt;&#xa;+ tribe_names: List&lt;&#39;string&#39;&gt;&#xa;+ slots: List&lt;&#39;char&#39;&gt;&#xa;&#xa;" style="text;strokeColor=none;fillColor=none;align=left;verticalAlign=top;spacingLeft=4;spacingRight=4;overflow=hidden;rotatable=0;points=[[0,0.5],[1,0.5]];portConstraint=eastwest;fontSize=14;fontFamily=Verdana;" parent="0eKDqRWV6uwHVYV8FEex-1" vertex="1">
          <mxGeometry y="26" width="380" height="74" as="geometry" />
        </mxCell>
        <mxCell id="0eKDqRWV6uwHVYV8FEex-3" value="" style="line;strokeWidth=1;fillColor=none;align=left;verticalAlign=middle;spacingTop=-1;spacingLeft=3;spacingRight=3;rotatable=0;labelPosition=right;points=[];portConstraint=eastwest;" parent="0eKDqRWV6uwHVYV8FEex-1" vertex="1">
          <mxGeometry y="100" width="380" height="8" as="geometry" />
        </mxCell>
        <mxCell id="0eKDqRWV6uwHVYV8FEex-4" value="+ create_tribes(tribe_names:List&lt;&#39;string&#39;&gt;): None&#xa;+ get_slots(): None" style="text;strokeColor=none;fillColor=none;align=left;verticalAlign=top;spacingLeft=4;spacingRight=4;overflow=hidden;rotatable=0;points=[[0,0.5],[1,0.5]];portConstraint=eastwest;fontSize=14;fontFamily=Verdana;" parent="0eKDqRWV6uwHVYV8FEex-1" vertex="1">
          <mxGeometry y="108" width="380" height="120" as="geometry" />
        </mxCell>
        <mxCell id="mule1TOQQiL7rsw4AzgX-10" value="" style="edgeStyle=orthogonalEdgeStyle;rounded=0;orthogonalLoop=1;jettySize=auto;html=1;fontFamily=Verdana;fontSize=14;entryX=0.501;entryY=1.007;entryDx=0;entryDy=0;entryPerimeter=0;" edge="1" parent="1" source="mule1TOQQiL7rsw4AzgX-1" target="0eKDqRWV6uwHVYV8FEex-4">
          <mxGeometry relative="1" as="geometry">
            <mxPoint x="320" y="209.9999999999999" as="targetPoint" />
          </mxGeometry>
        </mxCell>
        <mxCell id="mule1TOQQiL7rsw4AzgX-1" value="Tribe" style="swimlane;fontStyle=1;align=center;verticalAlign=top;childLayout=stackLayout;horizontal=1;startSize=26;horizontalStack=0;resizeParent=1;resizeParentMax=0;resizeLast=0;collapsible=1;marginBottom=0;fillColor=#f5f5f5;strokeColor=#666666;swimlaneFillColor=default;fontSize=12;fontFamily=Verdana;fontColor=#333333;" vertex="1" parent="1">
          <mxGeometry x="60" y="340" width="380" height="228" as="geometry">
            <mxRectangle x="520" y="340" width="100" height="26" as="alternateBounds" />
          </mxGeometry>
        </mxCell>
        <mxCell id="mule1TOQQiL7rsw4AzgX-2" value="+ tribes: List&lt;Tribe&gt;&#xa;+ tribe_names: List&lt;&#39;string&#39;&gt;&#xa;+ slots: List&lt;&#39;char&#39;&gt;&#xa;&#xa;" style="text;strokeColor=none;fillColor=none;align=left;verticalAlign=top;spacingLeft=4;spacingRight=4;overflow=hidden;rotatable=0;points=[[0,0.5],[1,0.5]];portConstraint=eastwest;fontSize=14;fontFamily=Verdana;" vertex="1" parent="mule1TOQQiL7rsw4AzgX-1">
          <mxGeometry y="26" width="380" height="74" as="geometry" />
        </mxCell>
        <mxCell id="mule1TOQQiL7rsw4AzgX-3" value="" style="line;strokeWidth=1;fillColor=none;align=left;verticalAlign=middle;spacingTop=-1;spacingLeft=3;spacingRight=3;rotatable=0;labelPosition=right;points=[];portConstraint=eastwest;" vertex="1" parent="mule1TOQQiL7rsw4AzgX-1">
          <mxGeometry y="100" width="380" height="8" as="geometry" />
        </mxCell>
        <mxCell id="mule1TOQQiL7rsw4AzgX-4" value="+ create_tribes(tribe_names:List&lt;&#39;string&#39;&gt;): None&#xa;+ get_slots(): None" style="text;strokeColor=none;fillColor=none;align=left;verticalAlign=top;spacingLeft=4;spacingRight=4;overflow=hidden;rotatable=0;points=[[0,0.5],[1,0.5]];portConstraint=eastwest;fontSize=14;fontFamily=Verdana;" vertex="1" parent="mule1TOQQiL7rsw4AzgX-1">
          <mxGeometry y="108" width="380" height="120" as="geometry" />
        </mxCell>
      </root>
    </mxGraphModel>
  </diagram>
</mxfile>
